# xmcd
#
# Track frame offsets: 
#        150
#        25848
#        41013
#        71189
#        89322
#        112219
#        130031
#        152998
#        172488
#        186627
#        232668
#        249649
#
# Disc length: 3665 seconds
#
# Revision: 0
# Processed by: cddbd v1.5.2PL0 Copyright (c) Steve Scherf et al.
# Submitted via: ExactAudioCopy v0.95b4
#
DISCID=af0e4f0c
DTITLE=Fall in Blues - Emotion
DYEAR=2008
DGENRE=Blues
TTITLE0=01 Border To Border
TTITLE1=02 She Won't Me No More
TTITLE2=03 Sweet Emotion
TTITLE3=04 Stop That Train
TTITLE4=05 Yellow Moon
TTITLE5=06 I Got The Same Old Blues
TTITLE6=07 No Peace Of Mind
TTITLE7=08 I've Got The Blues In The City
TTITLE8=09 Need You So Bad
TTITLE9=10 Blues In The Bottle
TTITLE10=11 Movin' On
TTITLE11=12 New Lost World (In Memory of Chris Whitley
EXTD=
EXTT0=
EXTT1=
EXTT2=
EXTT3=
EXTT4=
EXTT5=
EXTT6=
EXTT7=
EXTT8=
EXTT9=
EXTT10=
EXTT11=
PLAYORDER=
